<svg width="15" height="15" viewBox="0 0 15 15" fill="none" xmlns="http://www.w3.org/2000/svg">
<path d="M11.75 14.4062H3.25C2.54552 14.4062 1.86989 14.1264 1.37175 13.6283C0.873604 13.1301 0.59375 12.4545 0.59375 11.75V4.3125C0.59375 3.60802 0.873604 2.93239 1.37175 2.43425C1.86989 1.9361 2.54552 1.65625 3.25 1.65625H11.75C12.4545 1.65625 13.1301 1.9361 13.6283 2.43425C14.1264 2.93239 14.4062 3.60802 14.4062 4.3125V11.75C14.4062 12.4545 14.1264 13.1301 13.6283 13.6283C13.1301 14.1264 12.4545 14.4062 11.75 14.4062ZM3.25 2.71875C2.82731 2.71875 2.42193 2.88666 2.12305 3.18555C1.82416 3.48443 1.65625 3.88981 1.65625 4.3125V11.75C1.65625 12.1727 1.82416 12.5781 2.12305 12.877C2.42193 13.1758 2.82731 13.3438 3.25 13.3438H11.75C12.1727 13.3438 12.5781 13.1758 12.877 12.877C13.1758 12.5781 13.3438 12.1727 13.3438 11.75V4.3125C13.3438 3.88981 13.1758 3.48443 12.877 3.18555C12.5781 2.88666 12.1727 2.71875 11.75 2.71875H3.25Z" fill="#434343"/>
<path d="M11.75 12.2812H9.625C9.4841 12.2812 9.34898 12.2253 9.24935 12.1257C9.14972 12.026 9.09375 11.8909 9.09375 11.75V9.625C9.09375 9.4841 9.14972 9.34898 9.24935 9.24935C9.34898 9.14972 9.4841 9.09375 9.625 9.09375H11.75C11.8909 9.09375 12.026 9.14972 12.1257 9.24935C12.2253 9.34898 12.2812 9.4841 12.2812 9.625V11.75C12.2812 11.8909 12.2253 12.026 12.1257 12.1257C12.026 12.2253 11.8909 12.2812 11.75 12.2812ZM10.1562 11.2188H11.2188V10.1562H10.1562V11.2188Z" fill="#434343"/>
<path d="M13.875 5.90625H1.125C0.984104 5.90625 0.848978 5.85028 0.74935 5.75065C0.649721 5.65102 0.59375 5.5159 0.59375 5.375C0.59375 5.2341 0.649721 5.09898 0.74935 4.99935C0.848978 4.89972 0.984104 4.84375 1.125 4.84375H13.875C14.0159 4.84375 14.151 4.89972 14.2507 4.99935C14.3503 5.09898 14.4062 5.2341 14.4062 5.375C14.4062 5.5159 14.3503 5.65102 14.2507 5.75065C14.151 5.85028 14.0159 5.90625 13.875 5.90625Z" fill="#434343"/>
<path d="M4.84375 3.78125C4.70285 3.78125 4.56773 3.72528 4.4681 3.62565C4.36847 3.52602 4.3125 3.3909 4.3125 3.25V1.125C4.3125 0.984104 4.36847 0.848978 4.4681 0.74935C4.56773 0.649721 4.70285 0.59375 4.84375 0.59375C4.98465 0.59375 5.11977 0.649721 5.2194 0.74935C5.31903 0.848978 5.375 0.984104 5.375 1.125V3.25C5.375 3.3909 5.31903 3.52602 5.2194 3.62565C5.11977 3.72528 4.98465 3.78125 4.84375 3.78125Z" fill="#434343"/>
<path d="M10.1562 3.78125C10.0154 3.78125 9.88023 3.72528 9.7806 3.62565C9.68097 3.52602 9.625 3.3909 9.625 3.25V1.125C9.625 0.984104 9.68097 0.848978 9.7806 0.74935C9.88023 0.649721 10.0154 0.59375 10.1562 0.59375C10.2971 0.59375 10.4323 0.649721 10.5319 0.74935C10.6315 0.848978 10.6875 0.984104 10.6875 1.125V3.25C10.6875 3.3909 10.6315 3.52602 10.5319 3.62565C10.4323 3.72528 10.2971 3.78125 10.1562 3.78125Z" fill="#434343"/>
</svg>
