<svg width="15" height="15" viewBox="0 0 15 15" fill="none" xmlns="http://www.w3.org/2000/svg">
<g clip-path="url(#clip0_1606_13959)">
<path d="M3.16875 2.81251L3.37969 3.2297L3.6375 3.75001H5.625V6.09376H1.875V2.81251H3.16875ZM3.45938 1.87501H1.40625C1.28193 1.87501 1.1627 1.9244 1.07479 2.01231C0.986886 2.10021 0.9375 2.21944 0.9375 2.34376V6.56251C0.9375 6.68683 0.986886 6.80606 1.07479 6.89397C1.1627 6.98188 1.28193 7.03126 1.40625 7.03126H6.09375C6.21807 7.03126 6.3373 6.98188 6.42521 6.89397C6.51311 6.80606 6.5625 6.68683 6.5625 6.56251V3.28126C6.5625 3.15694 6.51311 3.03771 6.42521 2.94981C6.3373 2.8619 6.21807 2.81251 6.09375 2.81251H4.21875L3.88125 2.13282C3.84194 2.05481 3.78161 1.98933 3.70707 1.94377C3.63252 1.89822 3.54673 1.8744 3.45938 1.87501Z" fill="#434343"/>
<path d="M10.6688 2.81251L10.8797 3.2297L11.1375 3.75001H13.125V6.09376H9.375V2.81251H10.6688ZM10.9594 1.87501H8.90625C8.78193 1.87501 8.6627 1.9244 8.57479 2.01231C8.48689 2.10021 8.4375 2.21944 8.4375 2.34376V6.56251C8.4375 6.68683 8.48689 6.80606 8.57479 6.89397C8.6627 6.98188 8.78193 7.03126 8.90625 7.03126H13.5938C13.7181 7.03126 13.8373 6.98188 13.9252 6.89397C14.0131 6.80606 14.0625 6.68683 14.0625 6.56251V3.28126C14.0625 3.15694 14.0131 3.03771 13.9252 2.94981C13.8373 2.8619 13.7181 2.81251 13.5938 2.81251H11.7188L11.3813 2.13282C11.3419 2.05481 11.2816 1.98933 11.2071 1.94377C11.1325 1.89822 11.0467 1.8744 10.9594 1.87501Z" fill="#434343"/>
<path d="M3.16875 8.90626L3.37969 9.32345L3.6375 9.84376H5.625V12.1875H1.875V8.90626H3.16875ZM3.45938 7.96876H1.40625C1.28193 7.96876 1.1627 8.01815 1.07479 8.10605C0.986886 8.19396 0.9375 8.31319 0.9375 8.43751V12.6563C0.9375 12.7806 0.986886 12.8998 1.07479 12.9877C1.1627 13.0756 1.28193 13.125 1.40625 13.125H6.09375C6.21807 13.125 6.3373 13.0756 6.42521 12.9877C6.51311 12.8998 6.5625 12.7806 6.5625 12.6563V9.37501C6.5625 9.25069 6.51311 9.13146 6.42521 9.04355C6.3373 8.95565 6.21807 8.90626 6.09375 8.90626H4.21875L3.88125 8.22657C3.84194 8.14856 3.78161 8.08308 3.70707 8.03752C3.63252 7.99197 3.54673 7.96815 3.45938 7.96876Z" fill="#434343"/>
<path d="M10.6688 8.90626L10.8797 9.32345L11.1375 9.84376H13.125V12.1875H9.375V8.90626H10.6688ZM10.9594 7.96876H8.90625C8.78193 7.96876 8.6627 8.01815 8.57479 8.10605C8.48689 8.19396 8.4375 8.31319 8.4375 8.43751V12.6563C8.4375 12.7806 8.48689 12.8998 8.57479 12.9877C8.6627 13.0756 8.78193 13.125 8.90625 13.125H13.5938C13.7181 13.125 13.8373 13.0756 13.9252 12.9877C14.0131 12.8998 14.0625 12.7806 14.0625 12.6563V9.37501C14.0625 9.25069 14.0131 9.13146 13.9252 9.04355C13.8373 8.95565 13.7181 8.90626 13.5938 8.90626H11.7188L11.3813 8.22657C11.3419 8.14856 11.2816 8.08308 11.2071 8.03752C11.1325 7.99197 11.0467 7.96815 10.9594 7.96876Z" fill="#434343"/>
</g>
<defs>
<clipPath id="clip0_1606_13959">
<rect width="15" height="15" fill="white"/>
</clipPath>
</defs>
</svg>
