<svg width="368" height="255" viewBox="0 0 368 255" fill="none" xmlns="http://www.w3.org/2000/svg">
<rect width="368" height="255" rx="9.67033" fill="#FAFAFA"/>
<path d="M82.0541 238.866V243.977H81.382V240.166L79.6833 243.977H79.2106L77.5045 240.159V243.977H76.8324V238.866H77.5562L79.4469 243.091L81.3377 238.866H82.0541ZM84.9592 244.044C84.58 244.044 84.2354 243.957 83.9252 243.785C83.6199 243.613 83.3786 243.369 83.2014 243.054C83.029 242.734 82.9429 242.364 82.9429 241.946C82.9429 241.532 83.0315 241.168 83.2087 240.853C83.3909 240.533 83.6371 240.289 83.9473 240.122C84.2575 239.949 84.6047 239.863 84.9887 239.863C85.3728 239.863 85.7199 239.949 86.0301 240.122C86.3403 240.289 86.5841 240.53 86.7613 240.845C86.9435 241.161 87.0346 241.527 87.0346 241.946C87.0346 242.364 86.941 242.734 86.7539 243.054C86.5717 243.369 86.3231 243.613 86.008 243.785C85.6928 243.957 85.3432 244.044 84.9592 244.044ZM84.9592 243.453C85.2004 243.453 85.4269 243.396 85.6387 243.283C85.8504 243.17 86.0203 243 86.1483 242.773C86.2812 242.547 86.3477 242.271 86.3477 241.946C86.3477 241.621 86.2837 241.345 86.1557 241.119C86.0277 240.892 85.8602 240.725 85.6534 240.617C85.4466 240.503 85.2226 240.447 84.9813 240.447C84.7351 240.447 84.5086 240.503 84.3018 240.617C84.1 240.725 83.9375 240.892 83.8144 241.119C83.6913 241.345 83.6297 241.621 83.6297 241.946C83.6297 242.276 83.6888 242.554 83.807 242.781C83.9301 243.007 84.0926 243.177 84.2945 243.29C84.4963 243.398 84.7179 243.453 84.9592 243.453ZM89.8903 239.856C90.3827 239.856 90.7815 240.006 91.0868 240.306C91.3921 240.602 91.5447 241.03 91.5447 241.591V243.977H90.88V241.687C90.88 241.284 90.779 240.976 90.5772 240.764C90.3753 240.548 90.0996 240.439 89.75 240.439C89.3954 240.439 89.1123 240.55 88.9006 240.772C88.6938 240.993 88.5904 241.316 88.5904 241.739V243.977H87.9183V239.93H88.5904V240.506C88.7233 240.299 88.9031 240.139 89.1296 240.026C89.361 239.912 89.6146 239.856 89.8903 239.856Z" fill="#434343"/>
<path d="M124.725 238.829V239.376H123.322V243.977H122.65V239.376H121.239V238.829H124.725ZM129.142 239.93V243.977H128.47V243.379C128.342 243.586 128.162 243.748 127.931 243.866C127.705 243.98 127.453 244.036 127.178 244.036C126.863 244.036 126.579 243.972 126.328 243.844C126.077 243.711 125.878 243.514 125.73 243.253C125.587 242.992 125.516 242.675 125.516 242.3V239.93H126.181V242.212C126.181 242.611 126.282 242.918 126.483 243.135C126.685 243.347 126.961 243.453 127.311 243.453C127.67 243.453 127.953 243.342 128.16 243.12C128.367 242.899 128.47 242.576 128.47 242.153V239.93H129.142ZM133.97 241.798C133.97 241.926 133.963 242.062 133.948 242.204H130.713C130.738 242.603 130.873 242.916 131.119 243.142C131.37 243.364 131.673 243.475 132.028 243.475C132.318 243.475 132.559 243.408 132.751 243.275C132.948 243.138 133.086 242.955 133.165 242.729H133.889C133.78 243.118 133.564 243.435 133.239 243.682C132.914 243.923 132.51 244.044 132.028 244.044C131.644 244.044 131.299 243.957 130.994 243.785C130.693 243.613 130.457 243.369 130.285 243.054C130.112 242.734 130.026 242.364 130.026 241.946C130.026 241.527 130.11 241.161 130.277 240.845C130.445 240.53 130.678 240.289 130.979 240.122C131.284 239.949 131.634 239.863 132.028 239.863C132.412 239.863 132.751 239.947 133.047 240.114C133.342 240.282 133.569 240.513 133.726 240.809C133.889 241.099 133.97 241.429 133.97 241.798ZM133.276 241.658C133.276 241.402 133.219 241.183 133.106 241.001C132.993 240.813 132.838 240.673 132.641 240.58C132.449 240.481 132.234 240.432 131.998 240.432C131.658 240.432 131.368 240.54 131.126 240.757C130.89 240.973 130.755 241.274 130.72 241.658H133.276Z" fill="#434343"/>
<path d="M171.111 238.829L169.619 243.977H168.866L167.669 239.834L166.428 243.977L165.682 243.984L164.242 238.829H164.959L166.081 243.194L167.322 238.829H168.075L169.257 243.179L170.387 238.829H171.111ZM175.539 241.798C175.539 241.926 175.532 242.062 175.517 242.204H172.282C172.307 242.603 172.442 242.916 172.688 243.142C172.94 243.364 173.242 243.475 173.597 243.475C173.887 243.475 174.129 243.408 174.321 243.275C174.518 243.138 174.656 242.955 174.734 242.729H175.458C175.35 243.118 175.133 243.435 174.808 243.682C174.483 243.923 174.079 244.044 173.597 244.044C173.213 244.044 172.868 243.957 172.563 243.785C172.263 243.613 172.026 243.369 171.854 243.054C171.681 242.734 171.595 242.364 171.595 241.946C171.595 241.527 171.679 241.161 171.846 240.845C172.014 240.53 172.248 240.289 172.548 240.122C172.853 239.949 173.203 239.863 173.597 239.863C173.981 239.863 174.321 239.947 174.616 240.114C174.912 240.282 175.138 240.513 175.296 240.809C175.458 241.099 175.539 241.429 175.539 241.798ZM174.845 241.658C174.845 241.402 174.788 241.183 174.675 241.001C174.562 240.813 174.407 240.673 174.21 240.58C174.018 240.481 173.804 240.432 173.567 240.432C173.228 240.432 172.937 240.54 172.696 240.757C172.459 240.973 172.324 241.274 172.29 241.658H174.845ZM176.175 241.939C176.175 241.525 176.259 241.163 176.427 240.853C176.594 240.538 176.823 240.294 177.113 240.122C177.409 239.949 177.739 239.863 178.103 239.863C178.418 239.863 178.711 239.937 178.982 240.085C179.253 240.228 179.46 240.417 179.602 240.653V238.512H180.282V243.977H179.602V243.216C179.469 243.458 179.273 243.657 179.012 243.815C178.751 243.967 178.445 244.044 178.096 244.044C177.736 244.044 177.409 243.955 177.113 243.778C176.823 243.6 176.594 243.352 176.427 243.032C176.259 242.712 176.175 242.347 176.175 241.939ZM179.602 241.946C179.602 241.641 179.541 241.375 179.418 241.148C179.295 240.922 179.127 240.749 178.916 240.631C178.709 240.508 178.48 240.447 178.229 240.447C177.978 240.447 177.749 240.506 177.542 240.624C177.335 240.742 177.17 240.914 177.047 241.141C176.924 241.367 176.862 241.633 176.862 241.939C176.862 242.249 176.924 242.52 177.047 242.751C177.17 242.978 177.335 243.152 177.542 243.275C177.749 243.394 177.978 243.453 178.229 243.453C178.48 243.453 178.709 243.394 178.916 243.275C179.127 243.152 179.295 242.978 179.418 242.751C179.541 242.52 179.602 242.251 179.602 241.946Z" fill="#434343"/>
<path d="M214.587 238.829V239.376H213.184V243.977H212.511V239.376H211.101V238.829H214.587ZM217.423 239.856C217.728 239.856 218.004 239.922 218.25 240.055C218.496 240.183 218.689 240.378 218.826 240.639C218.969 240.9 219.041 241.217 219.041 241.591V243.977H218.376V241.687C218.376 241.284 218.275 240.976 218.073 240.764C217.871 240.548 217.595 240.439 217.246 240.439C216.891 240.439 216.608 240.55 216.396 240.772C216.19 240.993 216.086 241.316 216.086 241.739V243.977H215.414V238.512H216.086V240.506C216.219 240.299 216.401 240.139 216.633 240.026C216.869 239.912 217.133 239.856 217.423 239.856ZM223.728 239.93V243.977H223.056V243.379C222.928 243.586 222.748 243.748 222.517 243.866C222.29 243.98 222.039 244.036 221.763 244.036C221.448 244.036 221.165 243.972 220.914 243.844C220.663 243.711 220.463 243.514 220.316 243.253C220.173 242.992 220.102 242.675 220.102 242.3V239.93H220.766V242.212C220.766 242.611 220.867 242.918 221.069 243.135C221.271 243.347 221.547 243.453 221.896 243.453C222.256 243.453 222.539 243.342 222.746 243.12C222.952 242.899 223.056 242.576 223.056 242.153V239.93H223.728Z" fill="#434343"/>
<path d="M257.822 238.829V239.376H255.585V241.111H257.401V241.658H255.585V243.977H254.912V238.829H257.822ZM259.306 240.587C259.424 240.356 259.592 240.176 259.809 240.048C260.03 239.92 260.298 239.856 260.614 239.856V240.55H260.436C259.683 240.55 259.306 240.959 259.306 241.776V243.977H258.634V239.93H259.306V240.587ZM261.737 239.272C261.609 239.272 261.5 239.228 261.412 239.139C261.323 239.051 261.279 238.942 261.279 238.814C261.279 238.686 261.323 238.578 261.412 238.489C261.5 238.401 261.609 238.356 261.737 238.356C261.86 238.356 261.963 238.401 262.047 238.489C262.135 238.578 262.18 238.686 262.18 238.814C262.18 238.942 262.135 239.051 262.047 239.139C261.963 239.228 261.86 239.272 261.737 239.272ZM262.062 239.93V243.977H261.389V239.93H262.062Z" fill="#434343"/>
<path d="M295.115 244.029C294.775 244.029 294.47 243.97 294.199 243.851C293.933 243.728 293.724 243.561 293.571 243.349C293.419 243.133 293.34 242.884 293.335 242.603H294.051C294.076 242.845 294.175 243.049 294.347 243.216C294.524 243.379 294.78 243.46 295.115 243.46C295.435 243.46 295.686 243.381 295.868 243.224C296.055 243.061 296.149 242.854 296.149 242.603C296.149 242.406 296.095 242.246 295.987 242.123C295.878 242 295.743 241.907 295.58 241.843C295.418 241.779 295.199 241.71 294.923 241.636C294.583 241.547 294.31 241.458 294.103 241.37C293.901 241.281 293.726 241.143 293.579 240.956C293.436 240.764 293.365 240.508 293.365 240.188C293.365 239.907 293.436 239.659 293.579 239.442C293.722 239.226 293.921 239.058 294.177 238.94C294.438 238.822 294.736 238.763 295.071 238.763C295.553 238.763 295.947 238.883 296.252 239.125C296.563 239.366 296.737 239.686 296.777 240.085H296.038C296.014 239.888 295.91 239.715 295.728 239.568C295.546 239.415 295.305 239.339 295.004 239.339C294.724 239.339 294.495 239.413 294.317 239.56C294.14 239.703 294.051 239.905 294.051 240.166C294.051 240.353 294.103 240.506 294.207 240.624C294.315 240.742 294.445 240.833 294.598 240.897C294.756 240.956 294.975 241.025 295.255 241.104C295.595 241.198 295.868 241.291 296.075 241.385C296.282 241.473 296.459 241.614 296.607 241.806C296.755 241.993 296.829 242.249 296.829 242.574C296.829 242.825 296.762 243.061 296.629 243.283C296.496 243.504 296.299 243.684 296.038 243.822C295.777 243.96 295.47 244.029 295.115 244.029ZM297.566 241.939C297.566 241.525 297.65 241.163 297.818 240.853C297.985 240.538 298.214 240.294 298.504 240.122C298.8 239.949 299.127 239.863 299.487 239.863C299.841 239.863 300.149 239.939 300.41 240.092C300.671 240.245 300.865 240.437 300.993 240.668V239.93H301.673V243.977H300.993V243.224C300.861 243.46 300.661 243.657 300.395 243.815C300.134 243.967 299.829 244.044 299.479 244.044C299.12 244.044 298.795 243.955 298.504 243.778C298.214 243.6 297.985 243.352 297.818 243.032C297.65 242.712 297.566 242.347 297.566 241.939ZM300.993 241.946C300.993 241.641 300.932 241.375 300.809 241.148C300.686 240.922 300.518 240.749 300.307 240.631C300.1 240.508 299.871 240.447 299.62 240.447C299.369 240.447 299.14 240.506 298.933 240.624C298.726 240.742 298.561 240.914 298.438 241.141C298.315 241.367 298.253 241.633 298.253 241.939C298.253 242.249 298.315 242.52 298.438 242.751C298.561 242.978 298.726 243.152 298.933 243.275C299.14 243.394 299.369 243.453 299.62 243.453C299.871 243.453 300.1 243.394 300.307 243.275C300.518 243.152 300.686 242.978 300.809 242.751C300.932 242.52 300.993 242.251 300.993 241.946ZM303.629 240.484V242.869C303.629 243.066 303.67 243.206 303.754 243.29C303.838 243.369 303.983 243.408 304.19 243.408H304.685V243.977H304.079C303.705 243.977 303.424 243.891 303.237 243.719C303.05 243.546 302.956 243.263 302.956 242.869V240.484H302.432V239.93H302.956V238.91H303.629V239.93H304.685V240.484H303.629Z" fill="#434343"/>
<path d="M336.967 244.029C336.627 244.029 336.322 243.97 336.051 243.851C335.785 243.728 335.576 243.561 335.423 243.349C335.27 243.133 335.192 242.884 335.187 242.603H335.903C335.928 242.845 336.026 243.049 336.198 243.216C336.376 243.379 336.632 243.46 336.967 243.46C337.287 243.46 337.538 243.381 337.72 243.224C337.907 243.061 338.001 242.854 338.001 242.603C338.001 242.406 337.946 242.246 337.838 242.123C337.73 242 337.594 241.907 337.432 241.843C337.269 241.779 337.05 241.71 336.775 241.636C336.435 241.547 336.162 241.458 335.955 241.37C335.753 241.281 335.578 241.143 335.43 240.956C335.288 240.764 335.216 240.508 335.216 240.188C335.216 239.907 335.288 239.659 335.43 239.442C335.573 239.226 335.773 239.058 336.029 238.94C336.29 238.822 336.587 238.763 336.922 238.763C337.405 238.763 337.799 238.883 338.104 239.125C338.414 239.366 338.589 239.686 338.628 240.085H337.89C337.865 239.888 337.762 239.715 337.58 239.568C337.397 239.415 337.156 239.339 336.856 239.339C336.575 239.339 336.346 239.413 336.169 239.56C335.992 239.703 335.903 239.905 335.903 240.166C335.903 240.353 335.955 240.506 336.058 240.624C336.166 240.742 336.297 240.833 336.45 240.897C336.607 240.956 336.826 241.025 337.107 241.104C337.447 241.198 337.72 241.291 337.927 241.385C338.134 241.473 338.311 241.614 338.459 241.806C338.606 241.993 338.68 242.249 338.68 242.574C338.68 242.825 338.614 243.061 338.481 243.283C338.348 243.504 338.151 243.684 337.89 243.822C337.629 243.96 337.321 244.029 336.967 244.029ZM343.259 239.93V243.977H342.587V243.379C342.459 243.586 342.279 243.748 342.047 243.866C341.821 243.98 341.57 244.036 341.294 244.036C340.979 244.036 340.696 243.972 340.445 243.844C340.194 243.711 339.994 243.514 339.846 243.253C339.704 242.992 339.632 242.675 339.632 242.3V239.93H340.297V242.212C340.297 242.611 340.398 242.918 340.6 243.135C340.802 243.347 341.077 243.453 341.427 243.453C341.786 243.453 342.07 243.342 342.276 243.12C342.483 242.899 342.587 242.576 342.587 242.153V239.93H343.259ZM346.365 239.856C346.858 239.856 347.257 240.006 347.562 240.306C347.867 240.602 348.02 241.03 348.02 241.591V243.977H347.355V241.687C347.355 241.284 347.254 240.976 347.052 240.764C346.85 240.548 346.575 240.439 346.225 240.439C345.871 240.439 345.588 240.55 345.376 240.772C345.169 240.993 345.066 241.316 345.066 241.739V243.977H344.393V239.93H345.066V240.506C345.199 240.299 345.378 240.139 345.605 240.026C345.836 239.912 346.09 239.856 346.365 239.856Z" fill="#434343"/>
<path d="M23.5224 22.5962H22.8974V18.6135C22.7469 18.757 22.549 18.9005 22.3036 19.044C22.0606 19.1876 21.8418 19.2952 21.6474 19.367V18.7628C21.9969 18.5984 22.3025 18.3994 22.564 18.1656C22.8256 17.9318 23.0108 17.7049 23.1196 17.485H23.5224V22.5962ZM25.1266 20.0857C25.1266 19.4839 25.1879 19.0001 25.3106 18.6343C25.4356 18.2663 25.6197 17.9827 25.8627 17.7836C26.1081 17.5845 26.416 17.485 26.7863 17.485C27.0595 17.485 27.2991 17.5405 27.5051 17.6517C27.7111 17.7605 27.8813 17.919 28.0155 18.1274C28.1498 18.3334 28.2551 18.5857 28.3315 18.8843C28.4079 19.1806 28.4461 19.5811 28.4461 20.0857C28.4461 20.683 28.3848 21.1656 28.2621 21.5337C28.1394 21.8994 27.9553 22.183 27.71 22.3844C27.4669 22.5835 27.159 22.683 26.7863 22.683C26.2956 22.683 25.9102 22.5071 25.6301 22.1552C25.2944 21.7316 25.1266 21.0418 25.1266 20.0857ZM25.769 20.0857C25.769 20.9214 25.8662 21.4781 26.0606 21.7559C26.2574 22.0314 26.4993 22.1691 26.7863 22.1691C27.0734 22.1691 27.3141 22.0302 27.5086 21.7524C27.7053 21.4746 27.8037 20.9191 27.8037 20.0857C27.8037 19.2478 27.7053 18.691 27.5086 18.4156C27.3141 18.1401 27.0711 18.0024 26.7794 18.0024C26.4924 18.0024 26.2632 18.1239 26.0919 18.367C25.8766 18.6771 25.769 19.2501 25.769 20.0857ZM29.085 20.0857C29.085 19.4839 29.1463 19.0001 29.269 18.6343C29.394 18.2663 29.5781 17.9827 29.8211 17.7836C30.0665 17.5845 30.3744 17.485 30.7447 17.485C31.0179 17.485 31.2575 17.5405 31.4635 17.6517C31.6695 17.7605 31.8397 17.919 31.9739 18.1274C32.1082 18.3334 32.2135 18.5857 32.2899 18.8843C32.3663 19.1806 32.4045 19.5811 32.4045 20.0857C32.4045 20.683 32.3432 21.1656 32.2205 21.5337C32.0978 21.8994 31.9138 22.183 31.6684 22.3844C31.4253 22.5835 31.1174 22.683 30.7447 22.683C30.254 22.683 29.8686 22.5071 29.5885 22.1552C29.2528 21.7316 29.085 21.0418 29.085 20.0857ZM29.7274 20.0857C29.7274 20.9214 29.8246 21.4781 30.019 21.7559C30.2158 22.0314 30.4577 22.1691 30.7447 22.1691C31.0318 22.1691 31.2725 22.0302 31.467 21.7524C31.6637 21.4746 31.7621 20.9191 31.7621 20.0857C31.7621 19.2478 31.6637 18.691 31.467 18.4156C31.2725 18.1401 31.0295 18.0024 30.7378 18.0024C30.4508 18.0024 30.2216 18.1239 30.0503 18.367C29.835 18.6771 29.7274 19.2501 29.7274 20.0857Z" fill="#434343"/>
<path d="M26.0022 35.6415L26.6029 35.5859C26.6538 35.8684 26.751 36.0732 26.8946 36.2005C27.0381 36.3279 27.2221 36.3915 27.4466 36.3915C27.6388 36.3915 27.8066 36.3475 27.9501 36.2596C28.096 36.1716 28.2152 36.0547 28.3078 35.9089C28.4004 35.7607 28.4779 35.5616 28.5404 35.3116C28.6029 35.0616 28.6342 34.807 28.6342 34.5477C28.6342 34.52 28.633 34.4783 28.6307 34.4227C28.5057 34.6218 28.3344 34.7838 28.1168 34.9088C27.9015 35.0315 27.6677 35.0929 27.4154 35.0929C26.9941 35.0929 26.6376 34.9401 26.3459 34.6345C26.0543 34.329 25.9084 33.9262 25.9084 33.4262C25.9084 32.91 26.06 32.4945 26.3633 32.1796C26.6689 31.8648 27.0508 31.7074 27.5091 31.7074C27.8402 31.7074 28.1423 31.7965 28.4154 31.9748C28.6909 32.153 28.8992 32.4076 29.0404 32.7387C29.1839 33.0674 29.2557 33.5442 29.2557 34.1693C29.2557 34.8197 29.1851 35.3383 29.0439 35.7248C28.9027 36.1091 28.692 36.4019 28.4119 36.6033C28.1342 36.8047 27.8078 36.9054 27.4328 36.9054C27.0346 36.9054 26.7094 36.7955 26.457 36.5755C26.2047 36.3533 26.0531 36.042 26.0022 35.6415ZM28.5612 33.3949C28.5612 33.0361 28.4652 32.7514 28.2731 32.5408C28.0832 32.3301 27.8541 32.2248 27.5855 32.2248C27.3078 32.2248 27.0659 32.3382 26.8598 32.5651C26.6538 32.7919 26.5508 33.0859 26.5508 33.447C26.5508 33.7711 26.648 34.035 26.8425 34.2387C27.0392 34.4401 27.2811 34.5408 27.5682 34.5408C27.8575 34.5408 28.0948 34.4401 28.28 34.2387C28.4675 34.035 28.5612 33.7537 28.5612 33.3949ZM29.8668 34.3081C29.8668 33.7063 29.9282 33.2225 30.0509 32.8567C30.1759 32.4887 30.3599 32.2051 30.603 32.006C30.8483 31.8069 31.1562 31.7074 31.5266 31.7074C31.7997 31.7074 32.0393 31.763 32.2453 31.8741C32.4514 31.9829 32.6215 32.1414 32.7558 32.3498C32.89 32.5558 32.9954 32.8081 33.0717 33.1067C33.1481 33.403 33.1863 33.8035 33.1863 34.3081C33.1863 34.9054 33.125 35.388 33.0023 35.7561C32.8796 36.1218 32.6956 36.4054 32.4502 36.6068C32.2071 36.8059 31.8993 36.9054 31.5266 36.9054C31.0358 36.9054 30.6504 36.7295 30.3703 36.3776C30.0347 35.954 29.8668 35.2642 29.8668 34.3081ZM30.5092 34.3081C30.5092 35.1438 30.6064 35.7005 30.8009 35.9783C30.9976 36.2538 31.2395 36.3915 31.5266 36.3915C31.8136 36.3915 32.0544 36.2526 32.2488 35.9748C32.4456 35.6971 32.544 35.1415 32.544 34.3081C32.544 33.4702 32.4456 32.9134 32.2488 32.638C32.0544 32.3625 31.8113 32.2248 31.5196 32.2248C31.2326 32.2248 31.0034 32.3463 30.8321 32.5894C30.6168 32.8996 30.5092 33.4725 30.5092 34.3081Z" fill="#434343"/>
<path d="M26.8702 48.2806C26.611 48.1856 26.4189 48.0502 26.2938 47.8743C26.1688 47.6984 26.1063 47.4877 26.1063 47.2423C26.1063 46.872 26.2394 46.5606 26.5057 46.3083C26.7719 46.056 27.126 45.9298 27.5682 45.9298C28.0126 45.9298 28.3703 46.0594 28.6411 46.3187C28.912 46.5757 29.0474 46.8893 29.0474 47.2597C29.0474 47.4958 28.9849 47.7018 28.8599 47.8778C28.7372 48.0514 28.5497 48.1856 28.2974 48.2806C28.6099 48.3824 28.8471 48.5468 29.0092 48.7736C29.1735 49.0005 29.2557 49.2713 29.2557 49.5861C29.2557 50.0213 29.1018 50.3871 28.7939 50.6834C28.486 50.9797 28.0809 51.1278 27.5786 51.1278C27.0763 51.1278 26.6712 50.9797 26.3633 50.6834C26.0554 50.3848 25.9015 50.0132 25.9015 49.5688C25.9015 49.2377 25.9848 48.9611 26.1515 48.7389C26.3205 48.5144 26.5601 48.3616 26.8702 48.2806ZM26.7452 47.2215C26.7452 47.4622 26.8228 47.659 26.9779 47.8118C27.133 47.9646 27.3344 48.041 27.5821 48.041C27.8228 48.041 28.0196 47.9657 28.1724 47.8153C28.3274 47.6625 28.405 47.4761 28.405 47.2562C28.405 47.0271 28.3251 46.8349 28.1654 46.6798C28.008 46.5224 27.8112 46.4437 27.5751 46.4437C27.3367 46.4437 27.1388 46.5201 26.9814 46.6729C26.824 46.8257 26.7452 47.0085 26.7452 47.2215ZM26.5439 49.5722C26.5439 49.7505 26.5855 49.9229 26.6689 50.0896C26.7545 50.2563 26.8807 50.3859 27.0473 50.4785C27.214 50.5688 27.3934 50.6139 27.5855 50.6139C27.8842 50.6139 28.1307 50.5179 28.3251 50.3257C28.5196 50.1336 28.6168 49.8894 28.6168 49.5931C28.6168 49.2921 28.5161 49.0433 28.3147 48.8465C28.1156 48.6498 27.8656 48.5514 27.5647 48.5514C27.2707 48.5514 27.0265 48.6486 26.8321 48.8431C26.6399 49.0375 26.5439 49.2806 26.5439 49.5722ZM29.8668 48.5306C29.8668 47.9287 29.9282 47.4449 30.0509 47.0791C30.1759 46.7111 30.3599 46.4275 30.603 46.2284C30.8483 46.0294 31.1562 45.9298 31.5266 45.9298C31.7997 45.9298 32.0393 45.9854 32.2453 46.0965C32.4514 46.2053 32.6215 46.3639 32.7558 46.5722C32.89 46.7782 32.9954 47.0305 33.0717 47.3291C33.1481 47.6254 33.1863 48.0259 33.1863 48.5306C33.1863 49.1278 33.125 49.6104 33.0023 49.9785C32.8796 50.3442 32.6956 50.6278 32.4502 50.8292C32.2071 51.0283 31.8993 51.1278 31.5266 51.1278C31.0358 51.1278 30.6504 50.9519 30.3703 50.6C30.0347 50.1764 29.8668 49.4866 29.8668 48.5306ZM30.5092 48.5306C30.5092 49.3662 30.6064 49.9229 30.8009 50.2007C30.9976 50.4762 31.2395 50.6139 31.5266 50.6139C31.8136 50.6139 32.0544 50.475 32.2488 50.1973C32.4456 49.9195 32.544 49.3639 32.544 48.5306C32.544 47.6926 32.4456 47.1359 32.2488 46.8604C32.0544 46.5849 31.8113 46.4472 31.5196 46.4472C31.2326 46.4472 31.0034 46.5687 30.8321 46.8118C30.6168 47.122 30.5092 47.6949 30.5092 48.5306Z" fill="#434343"/>
<path d="M25.9501 60.84V60.2393H29.2453V60.7254C28.9212 61.0703 28.5994 61.5287 28.28 62.1004C27.9629 62.6722 27.7175 63.2602 27.5439 63.8643C27.4189 64.2903 27.339 64.7567 27.3043 65.2637H26.6619C26.6689 64.8632 26.7476 64.3794 26.898 63.8123C27.0485 63.2451 27.2638 62.6988 27.5439 62.1733C27.8263 61.6456 28.1261 61.2011 28.4432 60.84H25.9501ZM29.8668 62.7532C29.8668 62.1513 29.9282 61.6675 30.0509 61.3018C30.1759 60.9337 30.3599 60.6502 30.603 60.4511C30.8483 60.252 31.1562 60.1525 31.5266 60.1525C31.7997 60.1525 32.0393 60.208 32.2453 60.3191C32.4514 60.4279 32.6215 60.5865 32.7558 60.7948C32.89 61.0009 32.9954 61.2532 33.0717 61.5518C33.1481 61.8481 33.1863 62.2486 33.1863 62.7532C33.1863 63.3504 33.125 63.8331 33.0023 64.2012C32.8796 64.5669 32.6956 64.8505 32.4502 65.0519C32.2071 65.2509 31.8993 65.3505 31.5266 65.3505C31.0358 65.3505 30.6504 65.1745 30.3703 64.8227C30.0347 64.3991 29.8668 63.7092 29.8668 62.7532ZM30.5092 62.7532C30.5092 63.5889 30.6064 64.1456 30.8009 64.4234C30.9976 64.6988 31.2395 64.8366 31.5266 64.8366C31.8136 64.8366 32.0544 64.6977 32.2488 64.4199C32.4456 64.1421 32.544 63.5866 32.544 62.7532C32.544 61.9152 32.4456 61.3585 32.2488 61.083C32.0544 60.8076 31.8113 60.6698 31.5196 60.6698C31.2326 60.6698 31.0034 60.7914 30.8321 61.0344C30.6168 61.3446 30.5092 61.9175 30.5092 62.7532Z" fill="#434343"/>
<path d="M29.1515 75.6423L28.53 75.6909C28.4744 75.4455 28.3957 75.2673 28.2939 75.1561C28.1249 74.9779 27.9166 74.8888 27.6689 74.8888C27.4698 74.8888 27.295 74.9443 27.1446 75.0555C26.9478 75.199 26.7927 75.4085 26.6793 75.6839C26.5658 75.9594 26.5068 76.3518 26.5022 76.861C26.6527 76.6319 26.8367 76.4617 27.0543 76.3506C27.2719 76.2395 27.4999 76.1839 27.7383 76.1839C28.155 76.1839 28.5092 76.3379 28.8008 76.6458C29.0948 76.9513 29.2418 77.3472 29.2418 77.8333C29.2418 78.1527 29.1724 78.4502 29.0335 78.7257C28.8969 78.9988 28.7082 79.2083 28.4675 79.3541C28.2268 79.5 27.9536 79.5729 27.648 79.5729C27.1272 79.5729 26.7024 79.3819 26.3737 79C26.045 78.6157 25.8806 77.9837 25.8806 77.1041C25.8806 76.1203 26.0624 75.405 26.4258 74.9582C26.7429 74.5693 27.17 74.3749 27.7071 74.3749C28.1075 74.3749 28.4351 74.4872 28.6897 74.7117C28.9467 74.9362 29.1006 75.2464 29.1515 75.6423ZM26.5994 77.8367C26.5994 78.052 26.6445 78.2581 26.7348 78.4548C26.8274 78.6516 26.9559 78.802 27.1203 78.9062C27.2846 79.0081 27.4571 79.059 27.6376 79.059C27.9015 79.059 28.1284 78.9525 28.3182 78.7395C28.508 78.5266 28.6029 78.2372 28.6029 77.8715C28.6029 77.5196 28.5092 77.243 28.3217 77.0416C28.1342 76.8379 27.898 76.736 27.6133 76.736C27.3309 76.736 27.0913 76.8379 26.8946 77.0416C26.6978 77.243 26.5994 77.508 26.5994 77.8367ZM29.8668 76.9756C29.8668 76.3738 29.9282 75.89 30.0509 75.5242C30.1759 75.1561 30.3599 74.8726 30.603 74.6735C30.8483 74.4744 31.1562 74.3749 31.5266 74.3749C31.7997 74.3749 32.0393 74.4304 32.2453 74.5416C32.4514 74.6504 32.6215 74.8089 32.7558 75.0173C32.89 75.2233 32.9954 75.4756 33.0717 75.7742C33.1481 76.0705 33.1863 76.471 33.1863 76.9756C33.1863 77.5729 33.125 78.0555 33.0023 78.4236C32.8796 78.7893 32.6956 79.0729 32.4502 79.2743C32.2071 79.4734 31.8993 79.5729 31.5266 79.5729C31.0358 79.5729 30.6504 79.397 30.3703 79.0451C30.0347 78.6215 29.8668 77.9317 29.8668 76.9756ZM30.5092 76.9756C30.5092 77.8113 30.6064 78.368 30.8009 78.6458C30.9976 78.9213 31.2395 79.059 31.5266 79.059C31.8136 79.059 32.0544 78.9201 32.2488 78.6423C32.4456 78.3645 32.544 77.809 32.544 76.9756C32.544 76.1376 32.4456 75.5809 32.2488 75.3055C32.0544 75.03 31.8113 74.8923 31.5196 74.8923C31.2326 74.8923 31.0034 75.0138 30.8321 75.2568C30.6168 75.567 30.5092 76.14 30.5092 76.9756Z" fill="#434343"/>
<path d="M25.9084 92.3751L26.5647 92.3196C26.6133 92.639 26.7256 92.8798 26.9015 93.0418C27.0797 93.2015 27.2939 93.2814 27.5439 93.2814C27.8448 93.2814 28.0994 93.168 28.3078 92.9411C28.5161 92.7143 28.6203 92.4133 28.6203 92.0383C28.6203 91.6818 28.5196 91.4006 28.3182 91.1946C28.1191 90.9885 27.8575 90.8855 27.5335 90.8855C27.3321 90.8855 27.1503 90.9318 26.9883 91.0244C26.8263 91.1147 26.6989 91.2328 26.6064 91.3786L26.0195 91.3022L26.5126 88.6876H29.0439V89.2848H27.0126L26.7383 90.6529C27.0439 90.4399 27.3645 90.3334 27.7001 90.3334C28.1446 90.3334 28.5196 90.4874 28.8251 90.7953C29.1307 91.1031 29.2835 91.499 29.2835 91.9828C29.2835 92.4434 29.1492 92.8416 28.8807 93.1772C28.5543 93.5893 28.1087 93.7953 27.5439 93.7953C27.0809 93.7953 26.7024 93.6657 26.4084 93.4064C26.1168 93.1471 25.9501 92.8034 25.9084 92.3751ZM29.8668 91.198C29.8668 90.5962 29.9282 90.1124 30.0509 89.7466C30.1759 89.3786 30.3599 89.095 30.603 88.8959C30.8483 88.6968 31.1562 88.5973 31.5266 88.5973C31.7997 88.5973 32.0393 88.6529 32.2453 88.764C32.4514 88.8728 32.6215 89.0313 32.7558 89.2397C32.89 89.4457 32.9954 89.698 33.0717 89.9966C33.1481 90.2929 33.1863 90.6934 33.1863 91.198C33.1863 91.7953 33.125 92.2779 33.0023 92.646C32.8796 93.0117 32.6956 93.2953 32.4502 93.4967C32.2071 93.6958 31.8993 93.7953 31.5266 93.7953C31.0358 93.7953 30.6504 93.6194 30.3703 93.2675C30.0347 92.8439 29.8668 92.1541 29.8668 91.198ZM30.5092 91.198C30.5092 92.0337 30.6064 92.5904 30.8009 92.8682C30.9976 93.1437 31.2395 93.2814 31.5266 93.2814C31.8136 93.2814 32.0544 93.1425 32.2488 92.8647C32.4456 92.5869 32.544 92.0314 32.544 91.198C32.544 90.3601 32.4456 89.8033 32.2488 89.5279C32.0544 89.2524 31.8113 89.1147 31.5196 89.1147C31.2326 89.1147 31.0034 89.2362 30.8321 89.4793C30.6168 89.7894 30.5092 90.3624 30.5092 91.198Z" fill="#434343"/>
<path d="M27.9119 107.931V106.712H25.7036V106.139L28.0265 102.841H28.5369V106.139H29.2245V106.712H28.5369V107.931H27.9119ZM27.9119 106.139V103.844L26.3182 106.139H27.9119ZM29.8668 105.42C29.8668 104.819 29.9282 104.335 30.0509 103.969C30.1759 103.601 30.3599 103.317 30.603 103.118C30.8483 102.919 31.1562 102.82 31.5266 102.82C31.7997 102.82 32.0393 102.875 32.2453 102.986C32.4514 103.095 32.6215 103.254 32.7558 103.462C32.89 103.668 32.9954 103.92 33.0717 104.219C33.1481 104.515 33.1863 104.916 33.1863 105.42C33.1863 106.018 33.125 106.5 33.0023 106.868C32.8796 107.234 32.6956 107.518 32.4502 107.719C32.2071 107.918 31.8993 108.018 31.5266 108.018C31.0358 108.018 30.6504 107.842 30.3703 107.49C30.0347 107.066 29.8668 106.376 29.8668 105.42ZM30.5092 105.42C30.5092 106.256 30.6064 106.813 30.8009 107.091C30.9976 107.366 31.2395 107.504 31.5266 107.504C31.8136 107.504 32.0544 107.365 32.2488 107.087C32.4456 106.809 32.544 106.254 32.544 105.42C32.544 104.582 32.4456 104.026 32.2488 103.75C32.0544 103.475 31.8113 103.337 31.5196 103.337C31.2326 103.337 31.0034 103.459 30.8321 103.702C30.6168 104.012 30.5092 104.585 30.5092 105.42Z" fill="#434343"/>
<path d="M25.9119 120.81L26.5369 120.726C26.6087 121.081 26.7302 121.336 26.9015 121.494C27.0751 121.649 27.2858 121.726 27.5335 121.726C27.8274 121.726 28.0751 121.625 28.2765 121.421C28.4802 121.217 28.5821 120.965 28.5821 120.664C28.5821 120.377 28.4883 120.141 28.3008 119.956C28.1133 119.768 27.8749 119.674 27.5855 119.674C27.4675 119.674 27.3205 119.698 27.1446 119.744L27.214 119.195C27.2557 119.2 27.2892 119.202 27.3147 119.202C27.5809 119.202 27.8205 119.133 28.0335 118.994C28.2464 118.855 28.3529 118.641 28.3529 118.351C28.3529 118.122 28.2754 117.932 28.1203 117.782C27.9652 117.631 27.7649 117.556 27.5196 117.556C27.2765 117.556 27.074 117.633 26.9119 117.785C26.7499 117.938 26.6457 118.167 26.5994 118.473L25.9744 118.362C26.0508 117.943 26.2244 117.619 26.4952 117.39C26.7661 117.158 27.1029 117.042 27.5057 117.042C27.7835 117.042 28.0392 117.103 28.2731 117.223C28.5069 117.341 28.6851 117.503 28.8078 117.709C28.9328 117.915 28.9953 118.134 28.9953 118.365C28.9953 118.585 28.9363 118.785 28.8182 118.966C28.7001 119.147 28.5254 119.29 28.2939 119.397C28.5948 119.466 28.8286 119.611 28.9953 119.831C29.162 120.048 29.2453 120.321 29.2453 120.65C29.2453 121.095 29.0832 121.472 28.7592 121.782C28.4351 122.09 28.0254 122.244 27.53 122.244C27.0832 122.244 26.7117 122.111 26.4154 121.845C26.1214 121.578 25.9536 121.233 25.9119 120.81ZM29.8668 119.643C29.8668 119.041 29.9282 118.557 30.0509 118.192C30.1759 117.824 30.3599 117.54 30.603 117.341C30.8483 117.142 31.1562 117.042 31.5266 117.042C31.7997 117.042 32.0393 117.098 32.2453 117.209C32.4514 117.318 32.6215 117.476 32.7558 117.685C32.89 117.891 32.9954 118.143 33.0717 118.442C33.1481 118.738 33.1863 119.138 33.1863 119.643C33.1863 120.24 33.125 120.723 33.0023 121.091C32.8796 121.457 32.6956 121.74 32.4502 121.942C32.2071 122.141 31.8993 122.24 31.5266 122.24C31.0358 122.24 30.6504 122.064 30.3703 121.713C30.0347 121.289 29.8668 120.599 29.8668 119.643ZM30.5092 119.643C30.5092 120.479 30.6064 121.035 30.8009 121.313C30.9976 121.589 31.2395 121.726 31.5266 121.726C31.8136 121.726 32.0544 121.588 32.2488 121.31C32.4456 121.032 32.544 120.476 32.544 119.643C32.544 118.805 32.4456 118.248 32.2488 117.973C32.0544 117.697 31.8113 117.56 31.5196 117.56C31.2326 117.56 31.0034 117.681 30.8321 117.924C30.6168 118.235 30.5092 118.807 30.5092 119.643Z" fill="#434343"/>
<path d="M29.1932 135.775V136.376H25.8286C25.8239 136.226 25.8482 136.081 25.9015 135.942C25.9871 135.713 26.1237 135.487 26.3112 135.265C26.501 135.043 26.7742 134.786 27.1307 134.494C27.6839 134.04 28.0578 133.681 28.2522 133.418C28.4467 133.151 28.5439 132.9 28.5439 132.664C28.5439 132.416 28.4548 132.208 28.2765 132.039C28.1006 131.868 27.8703 131.782 27.5855 131.782C27.2846 131.782 27.0439 131.872 26.8633 132.053C26.6827 132.234 26.5913 132.484 26.589 132.803L25.9466 132.737C25.9906 132.258 26.1561 131.893 26.4432 131.643C26.7302 131.391 27.1156 131.265 27.5994 131.265C28.0879 131.265 28.4744 131.4 28.7592 131.671C29.0439 131.942 29.1863 132.278 29.1863 132.678C29.1863 132.882 29.1446 133.082 29.0613 133.279C28.9779 133.475 28.839 133.683 28.6446 133.9C28.4525 134.118 28.1318 134.416 27.6828 134.796C27.3078 135.111 27.067 135.325 26.9605 135.438C26.854 135.55 26.7661 135.662 26.6966 135.775H29.1932ZM29.8668 133.866C29.8668 133.264 29.9282 132.78 30.0509 132.414C30.1759 132.046 30.3599 131.762 30.603 131.563C30.8483 131.364 31.1562 131.265 31.5266 131.265C31.7997 131.265 32.0393 131.32 32.2453 131.431C32.4514 131.54 32.6215 131.699 32.7558 131.907C32.89 132.113 32.9954 132.365 33.0717 132.664C33.1481 132.96 33.1863 133.361 33.1863 133.866C33.1863 134.463 33.125 134.945 33.0023 135.313C32.8796 135.679 32.6956 135.963 32.4502 136.164C32.2071 136.363 31.8993 136.463 31.5266 136.463C31.0358 136.463 30.6504 136.287 30.3703 135.935C30.0347 135.511 29.8668 134.822 29.8668 133.866ZM30.5092 133.866C30.5092 134.701 30.6064 135.258 30.8009 135.536C30.9976 135.811 31.2395 135.949 31.5266 135.949C31.8136 135.949 32.0544 135.81 32.2488 135.532C32.4456 135.254 32.544 134.699 32.544 133.866C32.544 133.028 32.4456 132.471 32.2488 132.195C32.0544 131.92 31.8113 131.782 31.5196 131.782C31.2326 131.782 31.0034 131.904 30.8321 132.147C30.6168 132.457 30.5092 133.03 30.5092 133.866Z" fill="#434343"/>
<path d="M28.2626 150.598H27.6376V146.616C27.4872 146.759 27.2892 146.903 27.0439 147.046C26.8008 147.19 26.582 147.297 26.3876 147.369V146.765C26.7371 146.601 27.0427 146.402 27.3043 146.168C27.5659 145.934 27.7511 145.707 27.8598 145.487H28.2626V150.598ZM29.8668 148.088C29.8668 147.486 29.9282 147.002 30.0509 146.637C30.1759 146.268 30.3599 145.985 30.603 145.786C30.8483 145.587 31.1562 145.487 31.5266 145.487C31.7997 145.487 32.0393 145.543 32.2453 145.654C32.4514 145.763 32.6215 145.921 32.7558 146.13C32.89 146.336 32.9954 146.588 33.0717 146.887C33.1481 147.183 33.1863 147.583 33.1863 148.088C33.1863 148.685 33.125 149.168 33.0023 149.536C32.8796 149.902 32.6956 150.185 32.4502 150.387C32.2071 150.586 31.8993 150.685 31.5266 150.685C31.0358 150.685 30.6504 150.509 30.3703 150.157C30.0347 149.734 29.8668 149.044 29.8668 148.088ZM30.5092 148.088C30.5092 148.924 30.6064 149.48 30.8009 149.758C30.9976 150.034 31.2395 150.171 31.5266 150.171C31.8136 150.171 32.0544 150.032 32.2488 149.755C32.4456 149.477 32.544 148.921 32.544 148.088C32.544 147.25 32.4456 146.693 32.2488 146.418C32.0544 146.142 31.8113 146.005 31.5196 146.005C31.2326 146.005 31.0034 146.126 30.8321 146.369C30.6168 146.679 30.5092 147.252 30.5092 148.088Z" fill="#434343"/>
<path d="M29.4631 162.31C29.4631 161.708 29.5245 161.225 29.6471 160.859C29.7721 160.491 29.9562 160.207 30.1992 160.008C30.4446 159.809 30.7525 159.71 31.1229 159.71C31.396 159.71 31.6356 159.765 31.8416 159.876C32.0476 159.985 32.2178 160.144 32.3521 160.352C32.4863 160.558 32.5916 160.81 32.668 161.109C32.7444 161.405 32.7826 161.806 32.7826 162.31C32.7826 162.908 32.7213 163.39 32.5986 163.758C32.4759 164.124 32.2919 164.408 32.0465 164.609C31.8034 164.808 31.4956 164.908 31.1229 164.908C30.6321 164.908 30.2467 164.732 29.9666 164.38C29.6309 163.956 29.4631 163.266 29.4631 162.31ZM30.1055 162.31C30.1055 163.146 30.2027 163.703 30.3972 163.981C30.5939 164.256 30.8358 164.394 31.1229 164.394C31.4099 164.394 31.6507 164.255 31.8451 163.977C32.0419 163.699 32.1402 163.144 32.1402 162.31C32.1402 161.472 32.0419 160.916 31.8451 160.64C31.6507 160.365 31.4076 160.227 31.1159 160.227C30.8289 160.227 30.5997 160.348 30.4284 160.592C30.2131 160.902 30.1055 161.475 30.1055 162.31Z" fill="#434343"/>
<path d="M76.8652 218.779V180.305" stroke="#0F67F5" stroke-width="2.37041" stroke-linecap="round" stroke-linejoin="round"/>
<path d="M82.791 218.779V126.077" stroke="#434343" stroke-width="2.37041" stroke-linecap="round" stroke-linejoin="round"/>
<path d="M88.7168 218.779V150.313" stroke="#0F67F5" stroke-width="2.37041" stroke-linecap="round" stroke-linejoin="round"/>
<path d="M119.816 218.779V143.591" stroke="#0F67F5" stroke-width="2.37041" stroke-linecap="round" stroke-linejoin="round"/>
<path d="M125.742 218.779V102.601" stroke="#434343" stroke-width="2.37041" stroke-linecap="round" stroke-linejoin="round"/>
<path d="M131.668 218.779V185.848" stroke="#0F67F5" stroke-width="2.37041" stroke-linecap="round" stroke-linejoin="round"/>
<path d="M247.031 218.779V143.591" stroke="#0F67F5" stroke-width="2.37041" stroke-linecap="round" stroke-linejoin="round"/>
<path d="M252.957 218.779V207.4" stroke="#434343" stroke-width="2.37041" stroke-linecap="round" stroke-linejoin="round"/>
<path d="M258.883 218.779V185.848" stroke="#0F67F5" stroke-width="2.37041" stroke-linecap="round" stroke-linejoin="round"/>
<path d="M204.078 218.779V143.591" stroke="#0F67F5" stroke-width="2.37041" stroke-linecap="round" stroke-linejoin="round"/>
<path d="M210.004 218.779V170.635" stroke="#434343" stroke-width="2.37041" stroke-linecap="round" stroke-linejoin="round"/>
<path d="M215.93 218.779V210.358" stroke="#0F67F5" stroke-width="2.37041" stroke-linecap="round" stroke-linejoin="round"/>
<path d="M289.982 218.779V90.3459" stroke="#0F67F5" stroke-width="2.37041" stroke-linecap="round" stroke-linejoin="round"/>
<path d="M295.908 218.779V136.543" stroke="#434343" stroke-width="2.37041" stroke-linecap="round" stroke-linejoin="round"/>
<path d="M301.834 218.779V204.394" stroke="#0F67F5" stroke-width="2.37041" stroke-linecap="round" stroke-linejoin="round"/>
<path d="M332.939 218.779V182.187" stroke="#0F67F5" stroke-width="2.37041" stroke-linecap="round" stroke-linejoin="round"/>
<path d="M341.197 218.779V103.791" stroke="#434343" stroke-width="2.37041" stroke-linecap="round" stroke-linejoin="round"/>
<path d="M349.459 218.779V143.78" stroke="#0F67F5" stroke-width="2.37041" stroke-linecap="round" stroke-linejoin="round"/>
<path d="M161.123 218.779V183.519" stroke="#0F67F5" stroke-width="2.37041" stroke-linecap="round" stroke-linejoin="round"/>
<path d="M167.049 218.779V164.297" stroke="#434343" stroke-width="2.37041" stroke-linecap="round" stroke-linejoin="round"/>
<path d="M172.975 218.779V203.336" stroke="#0F67F5" stroke-width="2.37041" stroke-linecap="round" stroke-linejoin="round"/>
</svg>
