<svg width="23" height="24" viewBox="0 0 23 24" fill="none" xmlns="http://www.w3.org/2000/svg">
<path d="M11.9372 2.78541L11.9374 2.80374L11.9592 4.63695C15.989 5.08395 18.8832 8.70722 18.4362 12.737C18.0544 16.0785 15.4645 18.7587 12.1327 19.1926L12.1546 21.0258C17.1899 20.4616 20.803 15.9449 20.2388 10.9096C19.7744 6.56061 16.2778 3.16454 11.9372 2.78541ZM10.1043 2.83476C8.319 3.03021 6.62232 3.73798 5.24285 4.90951L6.56976 6.25045C7.58652 5.41328 8.81759 4.8669 10.1261 4.66796L10.1043 2.83476ZM3.96584 6.21732C2.82753 7.62432 2.16029 9.32822 1.99838 11.1269L3.83158 11.1051C3.99023 9.80145 4.48877 8.55792 5.29221 7.51244L3.96584 6.21732ZM2.02939 12.96C2.23413 14.7544 2.96012 16.4417 4.11331 17.8214L5.39926 16.4951C4.58031 15.469 4.0431 14.2378 3.8626 12.9382L2.02939 12.96ZM6.70773 17.8271L5.41196 19.0985C6.80979 20.2369 8.5233 20.9407 10.3221 21.1118L10.3003 19.2786C8.99674 19.1291 7.7531 18.6214 6.70773 17.8271ZM11.5332 7.34638L11.5905 12.1585L15.7444 14.5567L15.0704 15.6923L10.2238 12.8624L10.1583 7.36277L11.5332 7.34638Z" fill="black"/>
</svg>
