<svg width="12" height="12" viewBox="0 0 12 12" fill="none" xmlns="http://www.w3.org/2000/svg">
<path d="M9.96073 0.5H1.42291C0.638242 0.5 0 1.14006 0 1.92682V10.4877C0 11.2746 0.638266 11.9146 1.42291 11.9146H9.96073C10.7455 11.9146 11.3838 11.2746 11.3838 10.4877V1.92684C11.3838 1.14006 10.7455 0.5 9.96073 0.5Z" fill="#1B80E4"/>
<path d="M9.6056 6.20723H7.82687V4.78039C7.82687 4.38654 8.14569 4.42373 8.53832 4.42373H9.24992V2.64014H7.82687C6.64795 2.64014 5.69249 3.5982 5.69249 4.78039V6.20723H4.26953V7.99078H5.69249V11.9146H7.82687V7.99078H8.8941L9.6056 6.20723Z" fill="#FCFCFC"/>
</svg>
