<svg width="26" height="26" viewBox="0 0 26 26" fill="none" xmlns="http://www.w3.org/2000/svg">
<path d="M19.2902 23.798H7.2701C4.42596 23.798 2.12158 21.4833 2.12158 18.6391V10.9475C2.12158 9.53583 2.99351 7.76083 4.11456 6.88891L9.70941 2.52928C11.391 1.22139 14.0794 1.15911 15.8233 2.38396L22.2382 6.87853C23.4734 7.74007 24.4387 9.58773 24.4387 11.0928V18.6495C24.4387 21.4833 22.1344 23.798 19.2902 23.798ZM10.6644 3.75413L5.06952 8.11376C4.33254 8.69504 3.67859 10.0133 3.67859 10.9475V18.6391C3.67859 20.6217 5.2875 22.241 7.2701 22.241H19.2902C21.2728 22.241 22.8817 20.6321 22.8817 18.6495V11.0928C22.8817 10.0963 22.1655 8.7158 21.3455 8.15528L14.9306 3.66071C13.7473 2.8303 11.7958 2.87182 10.6644 3.75413Z" fill="white"/>
<path d="M13.2805 19.6459C12.8549 19.6459 12.502 19.293 12.502 18.8674V15.7534C12.502 15.3278 12.8549 14.9749 13.2805 14.9749C13.706 14.9749 14.059 15.3278 14.059 15.7534V18.8674C14.059 19.293 13.706 19.6459 13.2805 19.6459Z" fill="white"/>
</svg>
