<svg width="15" height="15" viewBox="0 0 15 15" fill="none" xmlns="http://www.w3.org/2000/svg">
<path fill-rule="evenodd" clip-rule="evenodd" d="M13.4515 4.28034C13.4515 2.59216 12.0824 1.22314 10.3943 1.22314C8.52692 1.22314 6.14719 1.22314 4.27986 1.22314C2.59167 1.22314 1.22266 2.59216 1.22266 4.28034C1.22266 6.14768 1.22266 8.52741 1.22266 10.3947C1.22266 12.0829 2.59167 13.4519 4.27986 13.4519C6.14719 13.4519 8.52692 13.4519 10.3943 13.4519C12.0824 13.4519 13.4515 12.0829 13.4515 10.3947C13.4515 8.52741 13.4515 6.14768 13.4515 4.28034Z" fill="url(#paint0_radial_1335_16418)"/>
<path d="M9.14551 3.05985C10.424 3.07208 11.6011 4.16961 11.6139 5.52823C11.6182 6.73399 11.6182 7.93975 11.6139 9.14551C11.6017 10.4191 10.5041 11.6011 9.14551 11.6139C7.93975 11.6182 6.73399 11.6182 5.52823 11.6139C4.2491 11.6017 3.07269 10.5041 3.05985 9.14551C3.05557 7.93975 3.05557 6.73399 3.05985 5.52823C3.07147 4.24849 4.16656 3.07269 5.52823 3.05985C6.73399 3.05557 7.93975 3.05557 9.14551 3.05985ZM5.54474 3.63766C4.55238 3.64072 3.64744 4.50101 3.63766 5.5319C3.63399 6.73522 3.63399 7.93853 3.63766 9.14184C3.64683 10.1232 4.48634 11.0263 5.5319 11.0361C6.73522 11.0398 7.93853 11.0398 9.14184 11.0361C10.1256 11.0269 11.0263 10.1874 11.0361 9.14184C11.0398 7.93853 11.0398 6.73522 11.0361 5.5319C11.0269 4.54382 10.1709 3.64744 9.14184 3.63766C7.94281 3.63399 6.74378 3.63766 5.54474 3.63766Z" fill="white"/>
<path d="M7.35129 5.19678C8.3406 5.20595 9.26265 5.96903 9.44364 6.94672C9.57265 7.64376 9.3293 8.3995 8.81569 8.88987C8.24399 9.43406 7.35924 9.62849 6.60105 9.3509C5.7536 9.0409 5.15744 8.14759 5.19719 7.24266C5.24549 6.16163 6.20056 5.20045 7.33662 5.19678C7.34151 5.19678 7.3464 5.19678 7.35129 5.19678ZM7.32683 5.77581C6.62062 5.78254 5.95476 6.31816 5.80802 7.01398C5.65944 7.71774 6.06421 8.49855 6.72884 8.7792C7.45462 9.08615 8.39196 8.74191 8.74232 8.0253C9.1049 7.28485 8.76311 6.27903 7.99758 5.92133C7.78908 5.82411 7.55735 5.7752 7.32683 5.77581Z" fill="white"/>
<path fill-rule="evenodd" clip-rule="evenodd" d="M10.089 5.03045C10.089 4.91245 10.042 4.79933 9.9588 4.71617C9.87564 4.63302 9.76253 4.58594 9.64452 4.58594C9.63535 4.58594 9.62556 4.58594 9.61639 4.58594C9.49838 4.58594 9.38527 4.63302 9.30211 4.71617C9.21896 4.79933 9.17188 4.91245 9.17188 5.03045C9.17188 5.03535 9.17188 5.03963 9.17188 5.04452C9.17188 5.16619 9.22018 5.28298 9.30639 5.36858C9.39199 5.45479 9.50878 5.5031 9.63045 5.5031C9.88359 5.5031 10.089 5.29765 10.089 5.04452C10.089 5.03963 10.089 5.03535 10.089 5.03045Z" fill="white"/>
<defs>
<radialGradient id="paint0_radial_1335_16418" cx="0" cy="0" r="1" gradientUnits="userSpaceOnUse" gradientTransform="translate(1.22266 13.1462) scale(17.0794)">
<stop stop-color="#FF8100"/>
<stop offset="0.19" stop-color="#FF7209"/>
<stop offset="0.32" stop-color="#F55E16"/>
<stop offset="0.48" stop-color="#D92938"/>
<stop offset="1" stop-color="#9100FF"/>
</radialGradient>
</defs>
</svg>
