<svg width="17" height="17" viewBox="0 0 17 17" fill="none" xmlns="http://www.w3.org/2000/svg">
<path d="M8.85798 0.315186C4.36358 0.315186 0.715954 3.96281 0.715954 8.45721C0.715954 12.9516 4.36358 16.5992 8.85798 16.5992C13.3524 16.5992 17 12.9516 17 8.45721C17 3.96281 13.3524 0.315186 8.85798 0.315186ZM8.85798 14.9708C5.2592 14.9708 2.34436 12.056 2.34436 8.45721C2.34436 4.85843 5.2592 1.94359 8.85798 1.94359C12.4568 1.94359 15.3716 4.85843 15.3716 8.45721C15.3716 12.056 12.4568 14.9708 8.85798 14.9708ZM8.85798 7.64301H5.60117V9.27141H8.85798V11.714L12.1148 8.45721L8.85798 5.2004V7.64301Z" fill="#434343"/>
</svg>
