<svg width="36" height="36" viewBox="0 0 36 36" fill="none" xmlns="http://www.w3.org/2000/svg">
<rect width="35.066" height="35.066" rx="17.533" fill="#FAFAFA"/>
<path d="M23.9705 18.5684L22.8561 14.5591C22.5295 13.3845 21.8197 12.3529 20.8394 11.6281C19.8591 10.9033 18.6647 10.5269 17.446 10.5589C16.2273 10.5908 15.0543 11.0292 14.1133 11.8044C13.1724 12.5796 12.5175 13.647 12.2529 14.8371L11.3902 18.7167C11.2949 19.1454 11.2971 19.59 11.3966 20.0178C11.4962 20.4455 11.6905 20.8454 11.9653 21.188C12.2401 21.5305 12.5883 21.807 12.9842 21.997C13.3802 22.1869 13.8137 22.2856 14.2529 22.2856H14.9062C15.0408 22.9485 15.4005 23.5444 15.9242 23.9725C16.448 24.4006 17.1036 24.6345 17.78 24.6345C18.4565 24.6345 19.1121 24.4006 19.6359 23.9725C20.1596 23.5444 20.5192 22.9485 20.6539 22.2856H21.1453C21.5974 22.2856 22.0434 22.1811 22.4484 21.9802C22.8534 21.7794 23.2065 21.4876 23.4801 21.1277C23.7537 20.7678 23.9403 20.3496 24.0255 19.9056C24.1107 19.4616 24.092 19.0039 23.9711 18.5684H23.9705ZM17.78 23.4585C17.4174 23.457 17.0641 23.3435 16.7685 23.1336C16.4729 22.9236 16.2493 22.6274 16.1285 22.2856H19.4316C19.3107 22.6274 19.0872 22.9236 18.7916 23.1336C18.4959 23.3435 18.1426 23.457 17.78 23.4585ZM22.5459 20.4176C22.3825 20.6344 22.1707 20.8101 21.9275 20.9307C21.6843 21.0514 21.4163 21.1136 21.1448 21.1126H14.2529C13.9894 21.1125 13.7293 21.0533 13.4918 20.9393C13.2543 20.8253 13.0454 20.6594 12.8806 20.4539C12.7157 20.2483 12.5992 20.0084 12.5395 19.7518C12.4798 19.4952 12.4784 19.2285 12.5356 18.9713L13.3978 15.091C13.6056 14.1563 14.1199 13.3178 14.859 12.709C15.5981 12.1001 16.5194 11.7557 17.4767 11.7307C18.4339 11.7056 19.3721 12.0012 20.142 12.5706C20.912 13.1399 21.4695 13.9503 21.726 14.8729L22.8403 18.8821C22.9139 19.1433 22.9257 19.4181 22.8746 19.6846C22.8235 19.9512 22.7109 20.2021 22.5459 20.4176Z" fill="#1A202C"/>
<circle cx="24.1078" cy="13.1492" r="4.20061" fill="#FF4747" stroke="#F2F6FF" stroke-width="1.09581"/>
</svg>
