<svg width="24" height="24" viewBox="0 0 14 14" fill="none" xmlns="http://www.w3.org/2000/svg">
<path d="M8.99935 10.3334H12.3327L11.396 9.3967C11.2702 9.27088 11.1705 9.12153 11.1024 8.95715C11.0343 8.79278 10.9993 8.61661 10.9993 8.4387V6.33336C10.9994 5.50599 10.7431 4.69892 10.2655 4.02329C9.78794 3.34765 9.11267 2.83667 8.33268 2.5607V2.33336C8.33268 1.97974 8.19221 1.6406 7.94216 1.39055C7.69211 1.14051 7.35297 1.00003 6.99935 1.00003C6.64573 1.00003 6.30659 1.14051 6.05654 1.39055C5.80649 1.6406 5.66602 1.97974 5.66602 2.33336V2.5607C4.11268 3.11003 2.99935 4.59203 2.99935 6.33336V8.43936C2.99935 8.79803 2.85668 9.1427 2.60268 9.3967L1.66602 10.3334H4.99935M8.99935 10.3334H4.99935M8.99935 10.3334V11C8.99935 11.5305 8.78864 12.0392 8.41356 12.4142C8.03849 12.7893 7.52978 13 6.99935 13C6.46892 13 5.96021 12.7893 5.58513 12.4142C5.21006 12.0392 4.99935 11.5305 4.99935 11V10.3334" stroke="white" stroke-width="1.58333" stroke-linecap="round" stroke-linejoin="round"/>
</svg>
