<svg width="20" height="20" viewBox="0 0 20 20" fill="none" xmlns="http://www.w3.org/2000/svg">
<g clip-path="url(#clip0_1335_15358)">
<path d="M15.8333 11.6665C15.2247 11.6688 14.624 11.8052 14.0741 12.066C13.5242 12.3269 13.0385 12.7057 12.6517 13.1757L8.15167 11.144C8.26614 10.7732 8.3273 10.3879 8.33333 9.99984C8.32793 9.61597 8.26875 9.23477 8.1575 8.86734L12.6525 6.82567C13.2832 7.56793 14.1552 8.06426 15.1155 8.22751C16.0757 8.39077 17.0628 8.2105 17.9034 7.71838C18.7439 7.22625 19.3842 6.45372 19.7118 5.53645C20.0395 4.61918 20.0335 3.61581 19.6949 2.70252C19.3563 1.78924 18.7068 1.02443 17.8604 0.542404C17.014 0.060375 16.0249 -0.10806 15.0666 0.0666762C14.1084 0.241412 13.2424 0.748148 12.6206 1.4979C11.9988 2.24766 11.6611 3.19249 11.6667 4.1665C11.6667 4.28484 11.6917 4.3965 11.7017 4.51234L6.75 6.75984C6.02 6.16496 5.10834 5.83794 4.16667 5.83317C3.0616 5.83317 2.00179 6.27216 1.22039 7.05356C0.438987 7.83496 0 8.89477 0 9.99984C0 11.1049 0.438987 12.1647 1.22039 12.9461C2.00179 13.7275 3.0616 14.1665 4.16667 14.1665C5.10427 14.1627 6.01255 13.8393 6.74167 13.2498L11.7017 15.489C11.6917 15.6048 11.6667 15.7157 11.6667 15.8332C11.6667 16.6573 11.911 17.4628 12.3689 18.148C12.8267 18.8333 13.4775 19.3673 14.2388 19.6827C15.0002 19.998 15.838 20.0805 16.6462 19.9198C17.4545 19.759 18.1969 19.3622 18.7796 18.7794C19.3623 18.1967 19.7592 17.4543 19.9199 16.646C20.0807 15.8378 19.9982 15 19.6828 14.2387C19.3675 13.4773 18.8334 12.8266 18.1482 12.3687C17.463 11.9109 16.6574 11.6665 15.8333 11.6665ZM15.8333 2.49984C16.163 2.49984 16.4852 2.59758 16.7593 2.78072C17.0334 2.96386 17.247 3.22415 17.3731 3.5287C17.4993 3.83324 17.5323 4.16835 17.468 4.49165C17.4037 4.81496 17.2449 5.11193 17.0118 5.34501C16.7788 5.5781 16.4818 5.73684 16.1585 5.80115C15.8352 5.86545 15.5001 5.83245 15.1955 5.7063C14.891 5.58016 14.6307 5.36654 14.4476 5.09245C14.2644 4.81837 14.1667 4.49614 14.1667 4.1665C14.1667 3.72448 14.3423 3.30055 14.6548 2.98799C14.9674 2.67543 15.3913 2.49984 15.8333 2.49984ZM4.16667 11.6665C3.83703 11.6665 3.5148 11.5688 3.24072 11.3856C2.96663 11.2025 2.75301 10.9422 2.62687 10.6376C2.50072 10.3331 2.46772 9.99799 2.53202 9.67469C2.59633 9.35138 2.75507 9.05441 2.98816 8.82133C3.22124 8.58824 3.51821 8.4295 3.84152 8.36519C4.16482 8.30089 4.49993 8.33389 4.80447 8.46004C5.10902 8.58618 5.36931 8.7998 5.55245 9.07389C5.73559 9.34797 5.83333 9.6702 5.83333 9.99984C5.83333 10.4419 5.65774 10.8658 5.34518 11.1783C5.03262 11.4909 4.60869 11.6665 4.16667 11.6665ZM15.8333 17.4998C15.5037 17.4998 15.1815 17.4021 14.9074 17.219C14.6333 17.0358 14.4197 16.7755 14.2935 16.471C14.1674 16.1664 14.1344 15.8313 14.1987 15.508C14.263 15.1847 14.4217 14.8877 14.6548 14.6547C14.8879 14.4216 15.1849 14.2628 15.5082 14.1985C15.8315 14.1342 16.1666 14.1672 16.4711 14.2934C16.7757 14.4195 17.036 14.6331 17.2191 14.9072C17.4023 15.1813 17.5 15.5035 17.5 15.8332C17.5 16.2752 17.3244 16.6991 17.0118 17.0117C16.6993 17.3242 16.2754 17.4998 15.8333 17.4998Z" fill="#0F67F5"/>
</g>
<defs>
<clipPath id="clip0_1335_15358">
<rect width="20" height="20" fill="white"/>
</clipPath>
</defs>
</svg>
